<?xml version="1.0" encoding="UTF-8" standalone="no"?>
<!-- Created with Inkscape (http://www.inkscape.org/) -->

<svg
   width="512"
   height="512"
   viewBox="0 0 512 512"
   version="1.1"
   id="svg5"
   inkscape:version="1.2.2 (b0a8486541, 2022-12-01)"
   sodipodi:docname="Ample.svg"
   xml:space="preserve"
   xmlns:inkscape="http://www.inkscape.org/namespaces/inkscape"
   xmlns:sodipodi="http://sodipodi.sourceforge.net/DTD/sodipodi-0.dtd"
   xmlns="http://www.w3.org/2000/svg"
   xmlns:svg="http://www.w3.org/2000/svg"><sodipodi:namedview
     id="namedview7"
     pagecolor="#ffffff"
     bordercolor="#000000"
     borderopacity="0.25"
     inkscape:showpageshadow="2"
     inkscape:pageopacity="0.0"
     inkscape:pagecheckerboard="0"
     inkscape:deskcolor="#d1d1d1"
     inkscape:document-units="px"
     showgrid="false"
     inkscape:zoom="0.87183381"
     inkscape:cx="401.45266"
     inkscape:cy="370.48345"
     inkscape:window-width="1856"
     inkscape:window-height="1011"
     inkscape:window-x="0"
     inkscape:window-y="0"
     inkscape:window-maximized="1"
     inkscape:current-layer="layer1" /><defs
     id="defs2" /><g
     inkscape:label="Layer 1"
     inkscape:groupmode="layer"
     id="layer1"><g
       id="g865"
       style="fill:#000000;fill-opacity:1"
       transform="translate(10.316675,11.597959)"><path
         style="fill:#000000;fill-opacity:1;stroke-width:0.604886"
         d="m 84.130073,357.34659 -25.76815,25.70767 H 37.372365 c -10.706488,0 -19.356363,8.64987 -19.356363,19.35637 v 38.71272 c 0,10.70649 8.649875,19.35636 19.356363,19.35636 H 231.23843 c 17.54171,0 34.65999,-5.62544 48.81433,-16.02949 l 76.57861,-56.43589 c 10.76698,-7.92402 13.06555,-23.04617 5.14154,-33.81315 -7.92402,-10.76697 -23.04618,-13.06554 -33.81315,-5.14153 l -72.46538,53.35098 h -68.11021 c -8.04499,0 -14.51727,-6.47229 -14.51727,-14.51728 0,-8.04499 6.47228,-14.51727 14.51727,-14.51727 h 43.55182 c 10.70648,0 19.35636,-8.64988 19.35636,-19.35636 0,-10.7065 -8.64988,-19.35637 -19.35636,-19.35637 h -92.0637 c -20.50566,0 -40.224947,8.16597 -54.742217,22.68324 z"
         id="path307" /><path
         d="m 408.30849,31.967366 c 7.08722,5.12186 9.7077,14.41267 6.49165,22.51235 L 368.10787,171.26995 h 86.17821 c 8.04013,0 15.1869,5.00275 17.9265,12.56642 2.7396,7.56367 0.4169,16.02069 -5.71742,21.14254 L 294.97253,347.91444 c -6.72988,5.59831 -16.31847,5.89609 -23.40569,0.77423 -7.08722,-5.12185 -9.70771,-14.41266 -6.49166,-22.51234 l 46.69227,-116.79024 h -86.17821 c -8.04012,0 -15.1869,-5.00274 -17.9265,-12.56641 -2.73959,-7.56367 -0.41689,-16.02069 5.71743,-21.14255 L 384.9028,32.741606 c 6.72988,-5.598311 16.31847,-5.896101 23.40569,-0.77424 z"
         id="path188"
         style="fill:#000000;fill-opacity:1;stroke-width:0.595565" /></g></g></svg>
